<?xml version="1.0" standalone="no"?><!DOCTYPE svg PUBLIC "-//W3C//DTD SVG 1.1//EN" "http://www.w3.org/Graphics/SVG/1.1/DTD/svg11.dtd"><svg t="1684456586228" class="icon" viewBox="0 0 1024 1024" version="1.1" xmlns="http://www.w3.org/2000/svg" p-id="1558" xmlns:xlink="http://www.w3.org/1999/xlink" width="200" height="200"><path d="M890.094933 480.017067H439.978667a114.756267 114.756267 0 0 0-220.7744 0H133.768533a31.402667 31.402667 0 1 0 0 62.839466h85.469867a114.756267 114.756267 0 0 0 220.7744 0h450.082133a31.402667 31.402667 0 0 0 0-62.805333z m-560.469333 83.421866a51.985067 51.985067 0 1 1-0.1024-103.970133 51.985067 51.985067 0 0 1 0.1024 103.970133z m560.469333-364.987733h-60.757333a114.756267 114.756267 0 0 0-220.2624 0H133.9392a31.402667 31.402667 0 0 0 0 62.839467H608.597333a114.756267 114.756267 0 0 0 221.184 0h60.3136a31.402667 31.402667 0 1 0-0.034133-62.805334z m-170.9056 84.309333a51.9168 51.9168 0 1 1 0.068267 0h-0.068267z m170.9056 478.890667h-147.114666a114.756267 114.756267 0 0 0-220.842667 0H133.973333a31.402667 31.402667 0 1 0 0 62.805333h388.232534a114.756267 114.756267 0 0 0 220.7744 0h147.114666a31.402667 31.402667 0 0 0 0-62.805333z m-257.536 83.3536a51.985067 51.985067 0 1 1-0.1024-103.970133 51.985067 51.985067 0 0 1 0.1024 103.970133z" p-id="1559" fill="#1296db"></path></svg>